<svg width="32" height="32" viewBox="0 0 32 32" fill="none" xmlns="http://www.w3.org/2000/svg">
<path fill-rule="evenodd" clip-rule="evenodd" d="M16.1633 4.38652C16.064 4.27509 15.9236 4.21759 15.7823 4.2198C15.641 4.21759 15.5006 4.27509 15.4012 4.38652L0.843551 15.2651C0.622348 15.4304 0.57703 15.7438 0.742329 15.965C0.907629 16.1862 1.22095 16.2315 1.44215 16.0662L3.18979 14.7602V26.8201C3.18979 27.0962 3.41365 27.3201 3.68979 27.3201H11.8471C11.9355 27.3988 12.0519 27.4467 12.1796 27.4467C12.3072 27.4467 12.4237 27.3988 12.5121 27.3201H19.5128C19.6011 27.3988 19.7176 27.4467 19.8452 27.4467C19.9729 27.4467 20.0894 27.3988 20.1777 27.3201H27.4922C27.7683 27.3201 27.9922 27.0962 27.9922 26.8201V14.4743L30.1224 16.0662C30.3436 16.2315 30.6569 16.1862 30.8222 15.965C30.9875 15.7438 30.9422 15.4304 30.721 15.2651L16.1633 4.38652ZM15.7823 5.35013L4.18979 14.0129V26.3201H11.6796V16.4571C11.6796 16.181 11.9034 15.9571 12.1796 15.9571H19.8452C20.1214 15.9571 20.3452 16.181 20.3452 16.4571V26.3201H26.9922V13.9102C26.9922 13.8532 27.0017 13.7984 27.0193 13.7473L15.7823 5.35013ZM19.3452 26.3201V16.9571H12.6796V26.3201H19.3452Z" fill="#222222"/>
</svg>
