<?xml version="1.0" encoding="UTF-8"?>
<svg width="103px" height="35px" viewBox="0 0 103 35" version="1.1" xmlns="http://www.w3.org/2000/svg" xmlns:xlink="http://www.w3.org/1999/xlink">
    <title>gen_logoHeader</title>
    <g id="logos" stroke="none" stroke-width="1" fill="none" fill-rule="evenodd">
        <g id="gen_logoHeader" fill="#775A97" fill-rule="nonzero">
            <path d="M28.1,18.2 C29,17.9 29.7,17.5 30.4,16.9 C30.8,16.6 31,16.1 31,15.6 C31,15.1 30.4,14.8 30,14.8 C29.3,14.7 29.1,15.1 28.9,15.4 C28.9,14.9 28.5,14.5 28.1,14.3 C27.7,14.1 27,14.3 26.7,14.8 C26.5,15.1 26.5,15.5 26.6,15.9 C26.9,16.7 27.6,17.4 28.1,18.2 Z" id="Path"></path>
            <path d="M101.2,26.6 C99.8,29.1 99.2,29.9 98.8,30.5 C98.5,30.9 97.9,31.4 97.5,31.6 C95,32.6 94.9,30 94.9,29.3 C94.9,26.9 95.2,26.1 95.5,23.7 C95.8,21.4 96.2,19.1 96.7,16.8 C97.4,13.4 98.7,7.2 99.1,5.2 C99.2,4.6 99.1,4.4 98.5,4.4 C94.7,4.5 94.6,3.5 92.4,18.3 C92.4,18.3 87,17.7 85,20.7 C84.1,22.1 83.4,23.7 83.1,25.3 C82,26.6 80.8,27.7 79.6,28.8 C78.9,29.4 78.3,29.9 77.5,30.3 C76.9,30.6 75.5,31.2 74.9,30.5 C74.2,29.8 74.7,28.1 74.8,27.3 C74.9,27 75.1,26 75.2,25.9 C75.2,25.9 75.9,25.8 76.1,25.8 C78.2,25.4 80.7,24.6 81.2,21.9 C81.4,20.5 80.2,19.1 78.9,18.7 C77.7,18.4 76.4,18.6 75.4,19.1 C73.5,20.1 72.1,22.1 71.4,24.3 C70.3,25.9 69.2,27.5 67.8,28.9 C67.6,29.1 66.9,30 66.6,29.9 C66.3,29.8 66.5,29.3 66.6,29.1 C66.8,28.1 67.1,27 67.4,26 C68,23.8 68.7,20.7 66.5,19.2 C64.3,17.8 61.9,20.2 60.5,21.7 C60.8,20.6 60.8,19 61.6,18.1 C62.7,16.9 63.8,15.8 64.8,14.6 C66.9,12.2 68.5,9.4 69.4,6.3 C69.9,4.5 69.8,2 67.8,1.1 C65.2,-4.4408921e-16 62.9,2.7 61.7,4.5 C58.6,9 57.5,14.9 56.8,20.2 C56.6,21.7 56.4,23.1 56.2,24.6 C55.8,25.1 55.4,25.6 55.2,25.8 C53.9,27.1 52.6,28.6 51.1,29.7 C50.4,30.2 49.7,30.6 48.8,30.6 C47.6,30.7 47.5,29.9 47.6,28.9 C47.7,26.5 48.6,24.1 50.1,22.2 C50.6,21.5 51.4,20.6 52.2,20.4 C52.9,20.3 52.2,21.4 53.2,21.4 C54.4,21.4 53.8,19.3 52.6,18.9 C49.8,17.8 47.1,19.6 45.6,21.7 C45,22.6 44.5,23.6 44.2,24.8 C43.7,25.3 43.3,25.9 42.8,26.4 C41.7,27.6 40.6,28.9 39.5,30.1 C38.6,31.2 36.4,32.5 36.9,30 C37.4,27.7 37.9,25.4 38.4,23.1 C39.1,20.2 39.8,17.2 40.4,14.3 C42.2,14.1 44.1,13.8 45.9,13.4 C46.4,13.3 46.7,12.8 46.6,12.4 C46.5,11.9 46,11.6 45.6,11.7 C44,12 42.4,12.3 40.8,12.5 L41,10.5 C41.2,9.7 41.4,8.8 41.6,8 C41.7,7.6 41.9,7 41.9,6.5 C41.9,5.5 40.5,6 39.8,6.1 C39.1,6.2 37.6,6.5 37.1,7 L37.1,7 C36.5,9 36,11.1 35.5,13.2 C34.3,13.3 33.1,13.3 31.9,13.3 L31.9,13.3 C31.4,13.3 31,13.6 31,14.1 C31,14.6 31.4,14.9 31.9,14.9 C32.1,14.9 32.3,14.9 32.5,14.9 C33.4,14.9 34.2,14.9 35.1,14.8 C34.6,16.9 34.2,19 33.7,21.1 C33.4,22.2 33.2,23.4 32.9,24.5 C32.4,25 32,25.5 31.5,25.9 C30.4,27 29.3,28 28.2,29 C27.8,29.4 27.2,30 26.7,30.1 C25.7,30.4 26,29 26.2,28.4 C26.6,26.4 27.5,24.6 28,22.6 C28.1,22.1 28.4,21.2 28.3,20.6 L28.3,20.6 C28.3,20.1 27.9,19.9 27.4,19.9 L27.4,19.9 C26.5,19.9 24.6,20.2 22.1,20.7 C21.6,20.8 21,20.9 20.3,21 C21.8,14.4 23.6,6.8 24.1,4.5 C24.2,4.1 24,3.7 23.6,3.5 C22.6,3.1 20.6,2.5 19.8,2.3 C19.6,2.3 19.5,2.4 19.4,2.6 C18.6,5.9 16.4,16.2 15.3,21.8 C13.5,22.1 11.6,22.4 9.8,22.5 C10.8,18.2 13,8.7 13.6,5.9 C13.7,5.5 13.5,5.1 13.1,4.9 C12.1,4.5 10.2,4 9.5,3.8 C9.3,3.8 9.2,3.9 9.1,4.1 C8.6,6.1 8.2,8.1 7.7,10.1 C7,14.7 6,18.9 5.1,23 C3.5,22.9 2.2,22.5 1.5,21.8 C1.2,21.5 0.6,21.5 0.3,21.8 C2.85882429e-15,22.1 2.80331314e-15,22.7 0.3,23 C1.3,23.9 2.8,24.4 4.7,24.6 L4.5,25.5 C4.1,27.2 3.8,28.9 3.9,30.6 C3.9,31.3 3.9,32.9 4.7,33.1 C5.4,33.3 6.1,32.4 6.4,31.9 C7.5,30.4 8.5,28.3 8.9,26.4 L9.3,25.1 L9.4,25 C9.4,24.9 9.4,24.9 9.5,24.8 C11.2,24.7 13.1,24.4 15.1,24.1 C15,24.6 14.9,25 14.9,25.3 L14.7,26.5 C14.4,28.4 14.1,30.4 14.7,32.3 C15,33.1 15.3,34.4 16.3,34.1 C17.2,33.9 17.6,32.5 17.9,31.7 C18.2,30.6 19,27.2 19.9,23.3 C20.7,23.1 21.6,23 22.4,22.8 C22.8,22.7 23.2,22.6 23.6,22.5 C22.7,24.5 22,26.8 21.9,29 C21.8,31.6 24.5,33.7 26.9,32.4 C28.2,31.7 29.3,30.6 30.3,29.5 C31,28.8 31.7,28.1 32.4,27.4 C31.9,30.2 33.6,34.2 37,33.8 C38.3,33.6 39.2,32.8 40,31.9 C40.9,30.9 41.9,29.8 42.8,28.8 C43.1,28.5 43.3,28.2 43.6,27.9 C43.6,29 44,30.1 44.7,30.9 C46.3,32.9 48.5,33.4 51.3,31.8 C53,30.9 54.2,29.2 55.6,27.9 L55.8,27.7 C55.8,28.4 55.7,29.1 55.7,29.7 C55.7,30.7 55.6,31.9 56.1,32.9 C56.5,33.6 57.4,34.1 58.1,33.4 C58.6,32.9 58.6,32 58.7,31.3 C58.9,29.9 59.1,28.6 59.4,27.3 C59.6,26.5 59.7,25.8 60.1,25.1 C60.4,24.6 60.8,24.1 61.2,23.6 C62,22.6 63,21.5 64.2,20.9 C64.5,20.7 64.2,21.7 64.2,21.8 C64.1,22.2 64,22.6 63.9,23.1 C63.7,24 63.5,24.8 63.3,25.7 C63,27.3 62.7,29 62.9,30.6 C63,31.6 63.4,32.8 64.5,32.9 C65.2,33 66,32.7 66.6,32.3 C68.3,31.3 69.8,29.9 71.1,28.2 C71.3,30.1 72.4,31.8 74.3,32.5 C76.7,33.3 79.2,31.7 80.9,30.1 C81.6,29.4 82.3,28.6 83,27.9 C83.1,29.7 83.9,32.1 86.1,32.6 C88.7,33.2 90.8,31.3 91.4,29 C90.5,32.5 94.3,35.2 98,33.7 C99.6,33 100.3,31.8 101.2,30.1 C102.3,28 101.6,29.3 102.6,27.2 C102.8,26.4 101.6,25.9 101.2,26.6 Z M64.9,6.5 C65.4,5.5 66.1,3.9 67.1,3.3 C68.7,2.5 67.6,6.1 67.4,6.7 C66.7,8.9 65.4,10.9 64,12.7 C63.5,13.4 62.9,14.1 62.4,14.7 C62.3,14.9 61.7,15.3 61.7,15.5 C62.1,12.5 63.5,9.3 64.9,6.5 Z M79.7,20.8 C80.4,21.5 79.9,22.7 79.2,23.2 C78.3,23.7 76.9,24.2 75.9,24.2 C76.3,23.4 76.8,22.4 77.3,21.8 C77.6,21.3 79,20.1 79.7,20.8 L79.7,20.8 Z M91.4,25.7 C91.2,27.6 89.5,30.5 87.9,30.9 C86,30.8 86.7,25.3 86.9,24.7 C87.6,22.2 89.5,19.8 92.3,19.5 C91.9,21.7 91.7,23.3 91.4,25.7 Z" id="Shape"></path>
        </g>
    </g>
</svg>