<svg width="48" height="48" viewBox="0 0 48 48" fill="none" xmlns="http://www.w3.org/2000/svg">
<path d="M24.756 9.33614C25.956 9.33614 27.24 9.39014 28.578 9.44414C30.156 9.50414 31.788 9.57014 33.63 9.57614C37.458 9.57614 40.152 10.4461 42.114 12.2941C43.2138 13.3839 44.0878 14.6799 44.6859 16.1079C45.2841 17.5359 45.5947 19.0679 45.6 20.6161C45.6904 22.1711 45.4743 23.7286 44.964 25.2001C44.4427 26.6549 43.6393 27.9925 42.6 29.1361C41.5273 30.2751 40.2396 31.1903 38.8112 31.8288C37.3828 32.4673 35.8421 32.8165 34.278 32.8561C32.046 32.9161 30.33 33.0121 28.818 33.0961C27.21 33.1861 25.89 33.2581 24.564 33.2581C23.964 33.2581 23.364 33.2581 22.764 33.2101C21.888 35.3461 19.44 38.5261 12.618 38.7241H12.516C11.802 38.5921 11.202 38.4361 11.118 37.9081C11.034 37.3801 11.52 37.1041 12.258 36.7081C13.338 36.1081 15.072 35.2141 15.6 33.4081L14.4 33.4441H14.058C11.0189 33.4431 8.09678 32.2722 5.898 30.1741C4.80007 29.1099 3.92524 27.8374 3.32464 26.4312C2.72404 25.025 2.40971 23.5132 2.4 21.9841C2.394 21.9444 2.394 21.9039 2.4 21.8641C2.31722 20.3194 2.53955 18.7735 3.0543 17.3147C3.56904 15.8559 4.36612 14.5128 5.4 13.3621C6.47105 12.2202 7.75819 11.3022 9.18675 10.6616C10.6153 10.021 12.1569 9.67036 13.722 9.63014L18.108 9.51014C19.578 9.46814 20.784 9.43814 23.652 9.34814H24.744L24.756 9.33614ZM24.756 8.29814H23.634C20.766 8.38814 19.56 8.41814 18.09 8.46014L13.704 8.58014C12.0043 8.62567 10.3303 9.00695 8.77848 9.70201C7.22668 10.3971 5.82767 11.3922 4.662 12.6301C3.5286 13.8816 2.65403 15.345 2.08869 16.936C1.52335 18.527 1.27842 20.2141 1.368 21.9001C1.36199 21.972 1.36199 22.0443 1.368 22.1161C1.39048 23.7648 1.73867 25.3928 2.39253 26.9065C3.04639 28.4201 3.99302 29.7896 5.178 30.9361C7.47868 33.1292 10.5089 34.3943 13.686 34.4881C13.1003 35.0083 12.4438 35.4426 11.736 35.7781C10.95 36.1981 9.864 36.7741 10.056 38.0521C10.248 39.3301 11.634 39.6001 12.3 39.7441C12.3976 39.7562 12.4964 39.7562 12.594 39.7441H12.666C19.452 39.5461 22.266 36.4801 23.412 34.2601H24.552C25.908 34.2601 27.276 34.1821 28.86 34.0981C30.444 34.0141 32.07 33.9181 34.296 33.8581C35.9907 33.8254 37.6614 33.4511 39.208 32.7576C40.7546 32.0641 42.1454 31.0656 43.2972 29.822C44.4489 28.5784 45.3379 27.1152 45.9109 25.52C46.4839 23.9248 46.7292 22.2304 46.632 20.5381C46.6223 18.8517 46.2797 17.1838 45.6238 15.63C44.9679 14.0763 44.0117 12.6674 42.81 11.4841C40.638 9.43814 37.716 8.48414 33.606 8.48414C31.806 8.48414 30.162 8.41214 28.596 8.35214C27.246 8.29814 25.968 8.24414 24.732 8.24414L24.756 8.29814Z" fill="white"/>
<path d="M33.6 10.1223C29.622 10.1223 26.472 9.81634 23.652 9.90034C18.69 10.0563 18.69 10.0383 13.722 10.1823C10.7236 10.2802 7.88552 11.5591 5.82596 13.7403C4.84044 14.8375 4.08304 16.1197 3.59787 17.5124C3.1127 18.9051 2.90945 20.3803 2.99996 21.8523C2.99999 23.3266 3.29338 24.7861 3.86302 26.1458C4.43267 27.5055 5.26718 28.7383 6.31796 29.7723C7.39369 30.798 8.66141 31.6011 10.0484 32.1355C11.4353 32.6699 12.9141 32.925 14.4 32.8863L16.266 32.8383C15.738 37.2603 9.25796 37.5483 12.606 38.1723C19.482 37.9743 21.69 34.6923 22.398 32.6403C25.872 32.8683 28.332 32.4783 34.26 32.3043C35.7504 32.2669 37.2187 31.9345 38.58 31.3263C39.9361 30.7135 41.1591 29.8411 42.18 28.7583C43.1693 27.6606 43.9303 26.377 44.4186 24.9822C44.9069 23.5875 45.1127 22.1094 45.024 20.6343C45.027 19.157 44.7351 17.6939 44.1653 16.3308C43.5956 14.9677 42.7594 13.7321 41.706 12.6963C39.6 10.6983 36.756 10.1283 33.6 10.1223Z" fill="white"/>
<path d="M12.6 38.7003H12.504C11.772 38.5683 11.208 38.4183 11.124 37.9023C11.04 37.3863 11.526 37.1283 12.246 36.7383C13.338 36.1383 15.096 35.2263 15.618 33.3963H14.418C11.2936 33.4735 8.26628 32.3083 5.99995 30.1563C3.81864 28.0174 2.56829 25.1049 2.51995 22.0503C2.49421 22.0001 2.47987 21.9448 2.47795 21.8883C2.38527 20.3436 2.60298 18.796 3.11824 17.3368C3.63349 15.8775 4.43585 14.5363 5.47795 13.3923C6.54468 12.2561 7.82517 11.3415 9.24602 10.7011C10.6669 10.0607 12.2001 9.70703 13.758 9.66032L18.108 9.54032C19.59 9.49832 20.796 9.46832 23.688 9.37832C25.194 9.33032 26.808 9.37832 28.524 9.46832C30.126 9.53432 31.776 9.60032 33.654 9.60032C37.482 9.60032 40.176 10.4703 42.138 12.3183C43.2443 13.4051 44.1216 14.7027 44.718 16.1343C45.3121 17.5617 45.6121 19.0943 45.6 20.6403C45.6877 22.1809 45.4676 23.7236 44.9525 25.1782C44.4374 26.6328 43.6377 27.9702 42.6 29.1123C41.528 30.2506 40.2412 31.1654 38.8139 31.8039C37.3866 32.4423 35.847 32.7919 34.284 32.8323C32.058 32.8983 30.348 32.9943 28.836 33.0723C26.816 33.2294 24.7886 33.2695 22.764 33.1923C21.9 35.3223 19.464 38.5023 12.63 38.7003H12.6ZM16.26 32.3163C16.333 32.3158 16.4055 32.3305 16.4726 32.3594C16.5397 32.3883 16.6001 32.4308 16.65 32.4843C16.7002 32.5411 16.738 32.6079 16.7607 32.6803C16.7834 32.7526 16.7907 32.829 16.782 32.9043C16.452 35.6703 14.064 36.9543 12.762 37.6443C19.236 37.4043 21.264 34.3083 21.894 32.4723C21.93 32.3618 22.0024 32.2667 22.0994 32.2024C22.1963 32.1382 22.3121 32.1085 22.428 32.1183C24.5517 32.2261 26.6801 32.196 28.8 32.0283C30.318 31.9443 32.04 31.8483 34.278 31.7823C35.7003 31.7458 37.1013 31.4277 38.4 30.8463C39.6999 30.2685 40.871 29.4362 41.844 28.3983C42.7874 27.3538 43.5099 26.1292 43.968 24.7983C44.4417 23.4721 44.6457 22.0645 44.568 20.6583C44.5706 19.2471 44.2918 17.8494 43.7478 16.5472C43.2039 15.245 42.4057 14.0644 41.4 13.0743C39.648 11.4303 37.2 10.6743 33.642 10.6743C31.746 10.6743 30.006 10.6023 28.47 10.5423C26.7 10.4703 25.17 10.4103 23.712 10.4523C20.814 10.5423 19.608 10.5723 18.12 10.6143L13.782 10.7343C12.36 10.7673 10.9587 11.0817 9.65907 11.6595C8.3594 12.2372 7.18711 13.0668 6.20995 14.1003C5.26617 15.1467 4.54006 16.3705 4.07395 17.7003C3.62051 18.9714 3.41679 20.318 3.47395 21.6663C3.50468 21.7279 3.52109 21.7955 3.52195 21.8643C3.52478 23.2682 3.80687 24.6574 4.35178 25.9512C4.8967 27.245 5.69355 28.4175 6.69595 29.4003C8.77019 31.3694 11.5408 32.4354 14.4 32.3643L16.266 32.3163H16.26Z" fill="#222222"/>
<path fill-rule="evenodd" clip-rule="evenodd" d="M24.0559 15.3857C23.4986 15.3629 22.9461 15.4862 22.4572 15.7415C21.9684 15.9967 21.5624 16.3737 21.2803 16.8305C20.9984 17.2873 20.8503 17.8076 20.85 18.3367C20.8498 18.6267 20.6147 18.8616 20.3247 18.8615C20.0348 18.8613 19.7998 18.6262 19.8 18.3362C19.8004 17.6106 20.0037 16.8997 20.3869 16.279C20.77 15.6584 21.318 15.1518 21.9712 14.8107C22.6243 14.4697 23.3593 14.3063 24.0988 14.3366C24.8383 14.3668 25.5568 14.5898 26.1784 14.9834C26.8 15.377 27.3024 15.9272 27.6301 16.5776C27.958 17.2281 28.0984 17.9534 28.0353 18.6764C27.9721 19.3994 27.7081 20.0908 27.2731 20.6778C26.8382 21.2646 26.2489 21.7247 25.5691 22.0115C25.2328 22.1534 24.9495 22.3858 24.7517 22.6778C24.5541 22.9696 24.45 23.3088 24.45 23.6542V24.1367C24.45 24.4267 24.2149 24.6617 23.925 24.6617C23.635 24.6617 23.4 24.4267 23.4 24.1367V23.6542C23.4 23.0966 23.5683 22.5526 23.8823 22.089C24.1961 21.6256 24.6412 21.2634 25.1609 21.0441C25.6707 20.829 26.1085 20.4857 26.4296 20.0525C26.7505 19.6195 26.9432 19.1125 26.9892 18.5851C27.0353 18.0578 26.9331 17.5276 26.6925 17.0502C26.4518 16.5725 26.0808 16.1643 25.6167 15.8705C25.1524 15.5765 24.6131 15.4085 24.0559 15.3857Z" fill="#222222"/>
<path d="M23.9674 25.8584C24.139 25.8584 24.3067 25.9076 24.4493 25.9997C24.592 26.0919 24.7031 26.2228 24.7688 26.376C24.8344 26.5293 24.8516 26.6979 24.8181 26.8605C24.7847 27.0232 24.7021 27.1726 24.5807 27.2899C24.4594 27.4071 24.3049 27.487 24.1366 27.5194C23.9684 27.5517 23.7939 27.5351 23.6354 27.4716C23.4769 27.4082 23.3415 27.3007 23.2462 27.1628C23.1508 27.0249 23.1 26.8628 23.1 26.6969C23.1 26.4745 23.1914 26.2613 23.354 26.104C23.5167 25.9467 23.7373 25.8584 23.9674 25.8584Z" fill="#222222"/>
</svg>
