<svg width="48" height="48" viewBox="0 0 48 48" fill="none" xmlns="http://www.w3.org/2000/svg">
<path d="M19.4864 26.9216L19.4835 26.9216L19.4801 26.9215H13.2302C12.3808 27.0849 11.0784 27.6028 9.99051 28.6088C8.89569 29.6213 8.00001 31.139 8.00001 33.4011C8.00001 36.1362 9.71696 39.379 13.2237 40.0001H36C36.7732 40.0001 37.4 40.6269 37.4 41.4001C37.4 42.1733 36.7732 42.8001 36 42.8001H13.1066C13.0321 42.8001 12.9579 42.7942 12.8845 42.7824L12.8845 42.7824C7.54261 41.9241 5.20001 37.0815 5.20001 33.4011C5.20001 30.2906 6.47334 28.0477 8.08943 26.5531C9.66581 25.0953 11.5517 24.3593 12.8785 24.1402C12.9539 24.1278 13.0302 24.1215 13.1066 24.1215H19.4926L19.5173 24.1217L19.5176 24.1218L19.5228 24.1219M19.4864 26.9216L19.5228 24.1219M19.4864 26.9216C19.5015 26.9218 19.5207 26.922 19.5439 26.9219L19.4864 26.9216ZM19.5228 24.1219L19.5237 24.1219L19.5228 24.1219ZM19.525 24.1219L19.5387 24.1219H19.5388C19.556 24.1219 19.5869 24.1216 19.6295 24.1201C19.7152 24.117 19.8454 24.1093 20.0046 24.0903C20.3306 24.0515 20.7392 23.9698 21.1272 23.8096C21.5141 23.6499 21.8286 23.4342 22.0449 23.1543C22.2471 22.8928 22.4303 22.4911 22.4303 21.8205C22.4303 21.0758 22.268 20.6247 22.0965 20.3468C21.9258 20.0699 21.691 19.8756 21.4015 19.7321C20.7647 19.4167 19.9888 19.4001 19.4926 19.4001C18.7194 19.4001 18.0926 18.7733 18.0926 18.0001C18.0926 17.2269 18.7194 16.6001 19.4926 16.6001L19.525 24.1219ZM19.525 24.1219V24.1219L19.5283 24.122L19.5284 24.122L19.5286 24.122L19.5301 24.122L19.5306 24.122L19.531 24.1221L19.518 24.5976M19.525 24.1219L19.518 24.5976M19.518 24.5976L19.5121 24.9968L19.5168 24.6414L19.518 24.5976ZM19.5085 16.6001L19.4926 16.6001L19.5439 26.9219C19.5903 26.9219 19.6526 26.921 19.7285 26.9183C19.8801 26.913 20.0888 26.9002 20.3362 26.8706C20.8235 26.8125 21.4994 26.6852 22.1957 26.3977C22.8931 26.1098 23.6631 25.6391 24.2602 24.8668C24.8715 24.076 25.2303 23.0599 25.2303 21.8205C25.2303 20.6552 24.9711 19.6736 24.4797 18.8769C23.9877 18.0791 23.3186 17.5571 22.6445 17.2232C21.3853 16.5994 20.0312 16.5999 19.5291 16.6001L19.5085 16.6001H19.5085Z" fill="white" stroke="white" stroke-width="1.75" stroke-linecap="round" stroke-linejoin="round"/>
<path d="M19.4927 17.125C19.0094 17.125 18.6177 17.5168 18.6177 18C18.6177 18.4832 19.0094 18.875 19.4927 18.875V17.125ZM19.4927 25.5214L19.5167 24.6468C19.5087 24.6465 19.5007 24.6464 19.4927 24.6464V25.5214ZM13.1066 25.5214V24.6464C13.0588 24.6464 13.0112 24.6503 12.964 24.6581L13.1066 25.5214ZM13.1066 41.4L12.9678 42.2639C13.0137 42.2713 13.0601 42.275 13.1066 42.275V41.4ZM36 42.275C36.4833 42.275 36.875 41.8833 36.875 41.4C36.875 40.9168 36.4833 40.525 36 40.525V42.275ZM20.9323 19.0132C21.4023 19.1258 21.8745 18.8361 21.9871 18.3662C22.0997 17.8962 21.81 17.424 21.3401 17.3114L20.9323 19.0132ZM24.3899 19.8888C24.2223 19.4355 23.719 19.2039 23.2657 19.3715C22.8125 19.539 22.5809 20.0423 22.7484 20.4956L24.3899 19.8888ZM22.7252 23.0309C22.5286 23.4723 22.727 23.9896 23.1684 24.1862C23.6098 24.3829 24.1271 24.1845 24.3238 23.743L22.7252 23.0309ZM21.3136 26.1457C21.7792 26.0163 22.0518 25.534 21.9224 25.0684C21.793 24.6028 21.3106 24.3302 20.845 24.4596L21.3136 26.1457ZM17.8961 24.6464C17.4129 24.6464 17.0211 25.0382 17.0211 25.5214C17.0211 26.0047 17.4129 26.3964 17.8961 26.3964V24.6464ZM14.7031 26.3964C15.1864 26.3964 15.5781 26.0047 15.5781 25.5214C15.5781 25.0382 15.1864 24.6464 14.7031 24.6464V26.3964ZM10.0787 25.7364C9.6608 25.979 9.5187 26.5145 9.76134 26.9324C10.004 27.3503 10.5395 27.4924 10.9574 27.2498L10.0787 25.7364ZM7.85799 30.9467C8.01291 30.4889 7.76741 29.9923 7.30966 29.8374C6.85192 29.6824 6.35526 29.9279 6.20035 30.3857L7.85799 30.9467ZM6.2415 36.4379C6.39773 36.8952 6.8951 37.1393 7.3524 36.983C7.80969 36.8268 8.05376 36.3294 7.89753 35.8721L6.2415 36.4379ZM10.9205 39.7126C10.5041 39.4676 9.96774 39.6065 9.72266 40.023C9.47758 40.4395 9.61654 40.9758 10.033 41.2209L10.9205 39.7126ZM15.9683 42.275C16.4515 42.275 16.8433 41.8833 16.8433 41.4C16.8433 40.9168 16.4515 40.525 15.9683 40.525V42.275ZM21.6916 40.525C21.2084 40.525 20.8166 40.9168 20.8166 41.4C20.8166 41.8833 21.2084 42.275 21.6916 42.275V40.525ZM27.415 42.275C27.8982 42.275 28.29 41.8833 28.29 41.4C28.29 40.9168 27.8982 40.525 27.415 40.525V42.275ZM33.1384 40.525C32.6551 40.525 32.2634 40.9168 32.2634 41.4C32.2634 41.8833 32.6551 42.275 33.1384 42.275V40.525ZM19.4927 18.875C19.8254 18.875 20.3642 18.8771 20.9323 19.0132L21.3401 17.3114C20.5533 17.1229 19.8326 17.125 19.4927 17.125V18.875ZM22.7484 20.4956C22.8721 20.8301 22.9554 21.2618 22.9554 21.8204H24.7054C24.7054 21.0875 24.5959 20.4461 24.3899 19.8888L22.7484 20.4956ZM22.9554 21.8204C22.9554 22.3308 22.8619 22.7242 22.7252 23.0309L24.3238 23.743C24.5702 23.1899 24.7054 22.5505 24.7054 21.8204H22.9554ZM20.845 24.4596C20.4805 24.5609 20.1395 24.6083 19.889 24.6298C19.7647 24.6405 19.6654 24.6446 19.5999 24.6461C19.5672 24.6468 19.5432 24.6469 19.5289 24.6468C19.5218 24.6468 19.5171 24.6467 19.515 24.6467C19.514 24.6467 19.5136 24.6467 19.5139 24.6467C19.514 24.6467 19.5143 24.6467 19.5148 24.6467C19.515 24.6467 19.5153 24.6467 19.5156 24.6467C19.5158 24.6467 19.516 24.6467 19.5161 24.6467C19.5162 24.6467 19.5164 24.6468 19.5164 24.6468C19.5166 24.6468 19.5167 24.6468 19.4927 25.5214C19.4686 26.3961 19.4687 26.3961 19.4689 26.3961C19.469 26.3961 19.4691 26.3961 19.4692 26.3961C19.4695 26.3961 19.4697 26.3961 19.47 26.3961C19.4705 26.3961 19.471 26.3962 19.4716 26.3962C19.4728 26.3962 19.4741 26.3962 19.4757 26.3963C19.4788 26.3963 19.4826 26.3964 19.4871 26.3965C19.4961 26.3966 19.5079 26.3968 19.5223 26.3968C19.5512 26.3969 19.5907 26.3967 19.6396 26.3956C19.7374 26.3934 19.8737 26.3876 20.0387 26.3734C20.3667 26.3452 20.819 26.2832 21.3136 26.1457L20.845 24.4596ZM19.4927 24.6464H17.8961V26.3964H19.4927V24.6464ZM14.7031 24.6464H13.1066V26.3964H14.7031V24.6464ZM12.964 24.6581C12.1485 24.7928 11.1103 25.1375 10.0787 25.7364L10.9574 27.2498C11.812 26.7536 12.6499 26.4837 13.2492 26.3847L12.964 24.6581ZM6.20035 30.3857C5.89752 31.2805 5.72504 32.2838 5.72504 33.401H7.47504C7.47504 32.4666 7.61883 31.6534 7.85799 30.9467L6.20035 30.3857ZM5.72504 33.401C5.72504 34.3838 5.89581 35.426 6.2415 36.4379L7.89753 35.8721C7.61228 35.0372 7.47504 34.186 7.47504 33.401H5.72504ZM10.033 41.2209C10.8867 41.7232 11.8654 42.0868 12.9678 42.2639L13.2454 40.5361C12.357 40.3933 11.5852 40.1038 10.9205 39.7126L10.033 41.2209ZM13.1066 42.275H15.9683V40.525H13.1066V42.275ZM21.6916 42.275H27.415V40.525H21.6916V42.275ZM33.1384 42.275H36V40.525H33.1384V42.275Z" fill="#222222"/>
<path fill-rule="evenodd" clip-rule="evenodd" d="M15.1565 5.29927C15.1565 5.29927 15.1565 5.29926 15.1565 5.29926C15.1565 5.29926 15.1565 5.29926 15.1565 5.29927C15.1565 5.29927 15.1565 5.29927 15.1565 5.29927ZM12.6018 4.80017C12.6018 4.80017 12.6018 4.80017 12.6018 4.80017C12.6018 4.80017 12.6018 4.80017 12.6018 4.80017C12.6018 4.80017 12.6018 4.80017 12.6018 4.80017ZM11.3703 4.9126C10.9176 4.99601 10.474 5.12538 10.047 5.29926C9.23816 5.62868 8.50513 6.11124 7.89085 6.71869C7.27657 7.32615 6.79337 8.04631 6.46951 8.83704C6.14566 9.62777 5.98766 10.4732 6.00475 11.3239V11.5522C5.97281 12.4717 6.1026 13.4071 6.3818 14.3309C6.1026 13.4071 5.97282 12.4717 6.00476 11.5522V11.3239C5.98766 10.4732 6.14566 9.62777 6.46952 8.83704C6.79337 8.04631 7.27657 7.32615 7.89085 6.71869C8.50514 6.11124 9.23816 5.62869 10.047 5.29927C10.474 5.12538 10.9176 4.99601 11.3703 4.9126ZM13.3774 22.9708C17.9647 20.3539 20.8778 15.9765 20.7686 11.5912C20.7745 11.4992 20.7765 11.4141 20.7767 11.3403C20.796 10.2781 20.5976 9.2238 20.1943 8.23897C19.789 7.24955 19.1857 6.3517 18.4222 5.59666C17.6588 4.84172 16.7505 4.24458 15.7516 3.83781C14.7529 3.43107 13.6822 3.22217 12.6018 3.22217C11.5213 3.22217 10.4506 3.43107 9.45187 3.83781C8.45304 4.24458 7.54471 4.84172 6.78129 5.59666C6.01776 6.3517 5.41447 7.24955 5.00924 8.23897C4.60608 9.22333 4.4077 10.2771 4.42675 11.3388V11.5261C4.28688 15.934 7.20448 20.3309 11.8112 22.9695C12.2962 23.2473 12.8919 23.2478 13.3774 22.9708Z" fill="white"/>
<path d="M19.1987 11.324C19.2158 10.4733 19.0578 9.62789 18.734 8.83716C18.4101 8.04643 17.9269 7.32627 17.3126 6.71882C16.6984 6.11136 15.9653 5.62881 15.1565 5.29939C14.3476 4.96997 13.4791 4.80029 12.6017 4.80029C11.7244 4.80029 10.8559 4.96997 10.047 5.29939C9.23815 5.62881 8.50512 6.11136 7.89084 6.71882C7.27656 7.32627 6.79336 8.04643 6.4695 8.83716C6.14565 9.62789 5.98765 10.4733 6.00474 11.324C6.00474 11.3993 6.00474 11.477 6.00474 11.5523C5.87699 15.2304 8.33693 19.1612 12.5955 21.6003C16.854 19.1709 19.3165 15.2304 19.1887 11.5523C19.1962 11.477 19.1987 11.3993 19.1987 11.324Z" fill="#6C9DEE"/>
<path fill-rule="evenodd" clip-rule="evenodd" d="M9.84908 4.81326C10.7211 4.45811 11.6569 4.27539 12.6018 4.27539C13.5467 4.27539 14.4825 4.45811 15.3545 4.81326C16.2266 5.16842 17.018 5.68909 17.6819 6.34561C18.3458 7.00217 18.869 7.78145 19.2199 8.63828C19.5702 9.49356 19.7416 10.4085 19.7238 11.3295C19.7237 11.4032 19.7215 11.4843 19.7146 11.5676C19.8349 15.4813 17.2221 19.5655 12.8557 22.0564C12.6942 22.1485 12.496 22.1484 12.3346 22.056C7.96035 19.5506 5.34793 15.4648 5.4798 11.5435V11.3292C5.46203 10.4083 5.63347 9.49349 5.98373 8.63828C6.33466 7.78145 6.85781 7.00217 7.52175 6.34561C8.18565 5.68909 8.977 5.16842 9.84908 4.81326ZM12.6018 5.32539C11.7921 5.32539 10.9908 5.48201 10.2451 5.78571C9.49942 6.0894 8.82472 6.53383 8.26005 7.09221C7.69543 7.65057 7.25218 8.31161 6.9554 9.03624C6.65863 9.76083 6.51405 10.535 6.5297 11.3135L6.5298 11.3241V11.5524C6.5298 11.5585 6.5297 11.5646 6.52949 11.5707C6.4128 14.9301 8.62049 18.6144 12.596 20.9924C16.5705 18.6235 18.7808 14.9303 18.6641 11.5707C18.6633 11.5472 18.6641 11.5237 18.6664 11.5003C18.6716 11.4479 18.6738 11.3887 18.6738 11.3241L18.6739 11.3135C18.6896 10.535 18.545 9.76083 18.2482 9.03624C17.9514 8.31161 17.5082 7.65057 16.9436 7.09221C16.3789 6.53383 15.7042 6.0894 14.9585 5.78571C14.2128 5.48201 13.4115 5.32539 12.6018 5.32539Z" fill="#222222"/>
<path d="M12.6 13.8003C14.2569 13.8003 15.6 12.4571 15.6 10.8003C15.6 9.14344 14.2569 7.80029 12.6 7.80029C10.9432 7.80029 9.60004 9.14344 9.60004 10.8003C9.60004 12.4571 10.9432 13.8003 12.6 13.8003Z" fill="white"/>
<path fill-rule="evenodd" clip-rule="evenodd" d="M12.6 8.32539C11.2331 8.32539 10.125 9.43349 10.125 10.8004C10.125 12.1673 11.2331 13.2754 12.6 13.2754C13.9669 13.2754 15.075 12.1673 15.075 10.8004C15.075 9.43349 13.9669 8.32539 12.6 8.32539ZM9.07501 10.8004C9.07501 8.85359 10.6532 7.27539 12.6 7.27539C14.5468 7.27539 16.125 8.85359 16.125 10.8004C16.125 12.7472 14.5468 14.3254 12.6 14.3254C10.6532 14.3254 9.07501 12.7472 9.07501 10.8004Z" fill="#222222"/>
<path fill-rule="evenodd" clip-rule="evenodd" d="M36.7774 42.7706C41.3648 40.1537 44.2778 35.7763 44.1686 31.391C44.1746 31.2991 44.1765 31.2139 44.1768 31.1401C44.196 30.0779 43.9976 29.0236 43.5943 28.0388C43.1891 27.0494 42.5858 26.1515 41.8222 25.3965C41.0588 24.6415 40.1505 24.0444 39.1517 23.6376C38.1529 23.2309 37.0822 23.022 36.0018 23.022C34.9213 23.022 33.8506 23.2309 32.8519 23.6376C31.8531 24.0444 30.9447 24.6415 30.1813 25.3965C29.4178 26.1515 28.8145 27.0494 28.4093 28.0388C28.0061 29.0231 27.8077 30.0769 27.8268 31.1386V31.3259C27.6869 35.7338 30.6045 40.1308 35.2112 42.7693C35.6962 43.0471 36.292 43.0476 36.7774 42.7706Z" fill="white"/>
<path d="M42.5988 31.1238C42.6159 30.2731 42.4579 29.4277 42.134 28.637C41.8102 27.8462 41.327 27.1261 40.7127 26.5186C40.0984 25.9112 39.3654 25.4286 38.5565 25.0992C37.7476 24.7698 36.8791 24.6001 36.0018 24.6001C35.1245 24.6001 34.2559 24.7698 33.4471 25.0992C32.6382 25.4286 31.9051 25.9112 31.2909 26.5186C30.6766 27.1261 30.1934 27.8462 29.8695 28.637C29.5457 29.4277 29.3877 30.2731 29.4048 31.1238C29.4048 31.1991 29.4048 31.2768 29.4048 31.3521C29.277 35.0302 31.737 38.961 35.9955 41.4001C40.2541 38.9707 42.7165 35.0302 42.5887 31.3521C42.5963 31.2768 42.5988 31.1991 42.5988 31.1238Z" fill="#6C9DEE"/>
<path fill-rule="evenodd" clip-rule="evenodd" d="M33.249 24.6131C34.1211 24.2579 35.0569 24.0752 36.0018 24.0752C36.9467 24.0752 37.8824 24.2579 38.7545 24.6131C39.6266 24.9682 40.4179 25.4889 41.0818 26.1454C41.7458 26.802 42.2689 27.5813 42.6198 28.4381C42.9701 29.2934 43.1416 30.2083 43.1238 31.1293C43.1237 31.203 43.1215 31.2841 43.1145 31.3674C43.2349 35.2811 40.622 39.3653 36.2556 41.8562C36.0941 41.9483 35.8959 41.9482 35.7346 41.8558C31.3603 39.3504 28.7479 35.2646 28.8798 31.3433V31.129C28.862 30.2081 29.0334 29.2933 29.3837 28.4381C29.7346 27.5813 30.2578 26.802 30.9217 26.1454C31.5856 25.4889 32.377 24.9682 33.249 24.6131ZM36.0018 25.1252C35.192 25.1252 34.3908 25.2818 33.6451 25.5855C32.8994 25.8892 32.2247 26.3336 31.66 26.892C31.0954 27.4504 30.6521 28.1114 30.3554 28.836C30.0586 29.5606 29.914 30.3348 29.9297 31.1133L29.9298 31.1239V31.3522C29.9298 31.3583 29.9297 31.3644 29.9295 31.3705C29.8128 34.7299 32.0204 38.4142 35.996 40.7922C39.9705 38.4233 42.1808 34.7301 42.0641 31.3705C42.0633 31.347 42.064 31.3235 42.0663 31.3001C42.0716 31.2477 42.0738 31.1885 42.0738 31.1239L42.0739 31.1133C42.0895 30.3348 41.9449 29.5606 41.6482 28.836C41.3514 28.1114 40.9081 27.4504 40.3435 26.892C39.7789 26.3336 39.1042 25.8892 38.3585 25.5855C37.6127 25.2818 36.8115 25.1252 36.0018 25.1252Z" fill="#222222"/>
<path d="M36 33.6001C37.6569 33.6001 39 32.257 39 30.6001C39 28.9432 37.6569 27.6001 36 27.6001C34.3431 27.6001 33 28.9432 33 30.6001C33 32.257 34.3431 33.6001 36 33.6001Z" fill="white"/>
<path fill-rule="evenodd" clip-rule="evenodd" d="M36 28.1252C34.6331 28.1252 33.525 29.2333 33.525 30.6002C33.525 31.9671 34.6331 33.0752 36 33.0752C37.3669 33.0752 38.475 31.9671 38.475 30.6002C38.475 29.2333 37.3669 28.1252 36 28.1252ZM32.475 30.6002C32.475 28.6534 34.0532 27.0752 36 27.0752C37.9468 27.0752 39.525 28.6534 39.525 30.6002C39.525 32.547 37.9468 34.1252 36 34.1252C34.0532 34.1252 32.475 32.547 32.475 30.6002Z" fill="#222222"/>
</svg>
