<svg width="32" height="32" viewBox="0 0 32 32" fill="none" xmlns="http://www.w3.org/2000/svg">
<path fill-rule="evenodd" clip-rule="evenodd" d="M6.95238 23.1733C5.01938 23.1733 3.45238 24.7403 3.45238 26.6733C3.45238 28.6035 5.01485 30.1688 6.944 30.1733C8.85253 30.1049 10.3841 28.5732 10.4524 26.6647V23.1733H6.95238ZM2.45238 26.6733C2.45238 24.188 4.4671 22.1733 6.95238 22.1733H10.9524C11.2285 22.1733 11.4524 22.3972 11.4524 22.6733V26.6733L11.4521 26.6901C11.3701 29.1312 9.41025 31.0911 6.96916 31.173L6.95238 31.1733C4.4671 31.1733 2.45238 29.1586 2.45238 26.6733Z" fill="#222222"/>
<path fill-rule="evenodd" clip-rule="evenodd" d="M21.619 17.84C19.686 17.84 18.119 19.407 18.119 21.34C18.119 23.2702 19.6815 24.8355 21.6107 24.84C23.5192 24.7716 25.0508 23.2399 25.119 21.3313V17.84H21.619ZM17.119 21.34C17.119 18.8547 19.1338 16.84 21.619 16.84H25.619C25.8952 16.84 26.119 17.0639 26.119 17.34V21.34L26.1188 21.3568C26.0368 23.7979 24.0769 25.7577 21.6358 25.8397L21.619 25.84C19.1338 25.84 17.119 23.8253 17.119 21.34Z" fill="#222222"/>
<path fill-rule="evenodd" clip-rule="evenodd" d="M24.752 1.96853C24.5211 1.81266 24.2277 1.78246 23.9699 1.88803L11.9699 6.79737C11.9698 6.7974 11.9699 6.79735 11.9699 6.79737C11.6568 6.92568 11.4522 7.23066 11.4524 7.56904L11.4524 22.6733C11.4524 22.9495 11.2285 23.1733 10.9524 23.1733C10.6762 23.1733 10.4524 22.9495 10.4524 22.6733L10.4524 7.56964C10.4524 7.56954 10.4524 7.56974 10.4524 7.56964C10.4521 6.82519 10.9019 6.15413 11.5909 5.87197L23.5909 0.962644C24.158 0.73037 24.8036 0.796818 25.3116 1.13973C25.819 1.48232 26.1219 2.0556 26.1191 2.66777C26.1191 2.66833 26.1191 2.66889 26.1191 2.66945L25.6191 2.66667H26.1191V2.66777V17.3467C26.1191 17.6228 25.8952 17.8467 25.6191 17.8467C25.3429 17.8467 25.1191 17.6228 25.1191 17.3467V2.66389C25.1206 2.38532 24.9829 2.12439 24.752 1.96853Z" fill="#222222"/>
<path fill-rule="evenodd" clip-rule="evenodd" d="M26.0818 5.15069C26.1864 5.40627 26.0639 5.69822 25.8084 5.80278L11.1417 11.8028C10.8861 11.9073 10.5942 11.7849 10.4896 11.5293C10.385 11.2737 10.5075 10.9818 10.7631 10.8772L25.4297 4.87723C25.6853 4.77268 25.9773 4.89511 26.0818 5.15069Z" fill="#222222"/>
</svg>
