<svg width="32" height="32" viewBox="0 0 32 32" fill="none" xmlns="http://www.w3.org/2000/svg">
<path fill-rule="evenodd" clip-rule="evenodd" d="M3.99276 11.6535C7.07989 8.18221 11.3622 6.35678 16.3434 6.35678H21.0623C22.1787 6.35678 23.0846 7.26431 23.0846 8.37907C23.0846 8.42946 23.0763 8.83703 22.8406 9.26538C22.6571 9.59893 22.3473 9.92128 21.8602 10.1024L23.284 12.9499H28.7926C30.5613 12.9499 32 14.3886 32 16.1574V20.2819C32 22.0506 30.5613 23.4894 28.7926 23.4894H27.4726V23.4403C27.256 25.1655 25.7839 26.5 24 26.5C22.2331 26.5 20.772 25.1907 20.5339 23.4894H12.4661C12.228 25.1907 10.7669 26.5 9 26.5C7.23308 26.5 5.77196 25.1907 5.53394 23.4894H2.36734C1.05928 23.4562 0 22.3745 0 21.0625C0 20.8954 0.0177722 20.7344 0.0501116 20.5659L0.0517904 20.5572L0.116847 20.2486L0.180278 19.961L0.180869 19.9583L0.181388 19.9558C0.571072 18.1403 1.31893 14.6566 3.99276 11.6535ZM5.53698 22.4894C5.78417 20.7984 7.24046 19.5 9 19.5C10.7595 19.5 12.2158 20.7984 12.463 22.4894H20.537C20.7842 20.7984 22.2405 19.5 24 19.5C25.7839 19.5 27.256 20.8345 27.4726 22.5597V22.4894H28.7926C30.009 22.4894 31 21.4984 31 20.2819V16.1574C31 14.9409 30.009 13.9499 28.7926 13.9499H18.4229V9.24821H21.0623C21.0833 9.24821 21.1068 9.24702 21.1361 9.24443C21.6539 9.19964 21.8626 8.96862 21.9645 8.78333C22.0703 8.59098 22.0829 8.40137 22.0844 8.37889C22.0846 8.37593 22.0844 8.37569 22.0844 8.37889C22.0844 7.81593 21.6259 7.35678 21.0623 7.35678H16.3434C11.6219 7.35678 7.62077 9.07874 4.73991 12.3182C2.25303 15.1111 1.54577 18.3644 1.15801 20.1709L1.15742 20.1736L1.09393 20.4615L1.03138 20.7587C1.00943 20.8741 1 20.9701 1 21.0625C1 21.8286 1.62211 22.4668 2.38681 22.4894H5.53698ZM22.1659 12.9499L20.8151 10.2482H19.4229V12.9499H22.1659ZM16 9.44115V14H5.9001L6.62327 13.1713C8.65895 10.8384 11.492 9.94382 15.4446 9.50308L16 9.44115ZM8.2151 13H15V10.563C11.9855 10.9453 9.83345 11.6252 8.2151 13ZM3.75192 20.3844C4.7072 18.4551 6.6962 17.1257 8.99771 17.1257C11.2992 17.1257 13.2882 18.4551 14.2435 20.3844C14.366 20.6318 14.2648 20.9318 14.0173 21.0543C13.7698 21.1769 13.4699 21.0756 13.3473 20.8281C12.5541 19.226 10.9042 18.1257 8.99771 18.1257C7.09123 18.1257 5.44137 19.226 4.64808 20.8281C4.52555 21.0756 4.2256 21.1769 3.97813 21.0543C3.73067 20.9318 3.62939 20.6318 3.75192 20.3844ZM9 20.5C7.61929 20.5 6.5 21.6193 6.5 23C6.5 24.3807 7.61929 25.5 9 25.5C10.3807 25.5 11.5 24.3807 11.5 23C11.5 21.6193 10.3807 20.5 9 20.5ZM24 20.5C22.6193 20.5 21.5 21.6193 21.5 23C21.5 24.3807 22.6193 25.5 24 25.5C25.3807 25.5 26.5 24.3807 26.5 23C26.5 21.6193 25.3807 20.5 24 20.5Z" fill="#222222"/>
</svg>
