<svg width="32" height="32" viewBox="0 0 32 32" fill="none" xmlns="http://www.w3.org/2000/svg">
<path fill-rule="evenodd" clip-rule="evenodd" d="M4.61863 5.83185C4.61863 5.13476 5.18667 4.56671 5.88377 4.56671H9.4787C10.1758 4.56671 10.7438 5.13476 10.7438 5.83185V6.747H29.4824C30.2557 6.747 30.8619 7.35318 30.8619 8.12654V25.9115C30.8619 26.6849 30.2557 27.2911 29.4824 27.2911H2.51763C1.74427 27.2911 1.13809 26.6849 1.13809 25.9115V8.12654C1.13809 7.35318 1.74427 6.747 2.51763 6.747H4.61863V5.83185ZM5.61863 6.747H9.74384V5.83185C9.74384 5.68704 9.62351 5.56671 9.4787 5.56671H5.88377C5.73896 5.56671 5.61863 5.68704 5.61863 5.83185V6.747ZM2.13809 14.7843V25.9115C2.13809 26.1326 2.29656 26.2911 2.51763 26.2911H29.4824C29.7034 26.2911 29.8619 26.1326 29.8619 25.9115V14.7843H23.1338C23.3588 15.4954 23.4802 16.2525 23.4802 17.0381C23.4802 21.1587 20.1398 24.4991 16.0191 24.4991C11.8984 24.4991 8.55805 21.1587 8.55805 17.0381C8.55805 16.2525 8.67943 15.4954 8.90447 14.7843H2.13809ZM9.30298 13.7843H2.13809V8.12654C2.13809 7.90547 2.29656 7.747 2.51763 7.747H29.4824C29.7034 7.747 29.8619 7.90547 29.8619 8.12654V13.7843H22.7352C21.5265 11.2939 18.9733 9.57699 16.0191 9.57699C13.0649 9.57699 10.5117 11.2939 9.30298 13.7843ZM21.921 14.4048C20.913 12.149 18.6497 10.577 16.0191 10.577C12.4507 10.577 9.55805 13.4697 9.55805 17.0381C9.55805 20.6064 12.4507 23.4991 16.0191 23.4991C19.5875 23.4991 22.4802 20.6064 22.4802 17.0381C22.4802 16.1581 22.3043 15.3192 21.9857 14.5546C21.9564 14.5092 21.9343 14.4587 21.921 14.4048ZM23.2832 9.57967C23.2832 9.30353 23.507 9.07967 23.7832 9.07967H27.7228C27.9989 9.07967 28.2228 9.30353 28.2228 9.57967V11.8365C28.2228 12.1126 27.9989 12.3365 27.7228 12.3365H23.7832C23.507 12.3365 23.2832 12.1126 23.2832 11.8365V9.57967ZM24.2832 10.0797V11.3365H27.2228V10.0797H24.2832ZM16.0191 14.0959C14.394 14.0959 13.0767 15.4132 13.0767 17.0383C13.0767 18.6632 14.3939 19.9802 16.0191 19.9802C17.6443 19.9802 18.9615 18.6632 18.9615 17.0383C18.9615 15.4132 17.6442 14.0959 16.0191 14.0959ZM12.0767 17.0383C12.0767 14.8609 13.8418 13.0959 16.0191 13.0959C18.1965 13.0959 19.9615 14.8609 19.9615 17.0383C19.9615 19.2157 18.1964 20.9802 16.0191 20.9802C13.8418 20.9802 12.0767 19.2157 12.0767 17.0383Z" fill="#222222"/>
</svg>
