<svg width="32" height="32" viewBox="0 0 32 32" fill="none" xmlns="http://www.w3.org/2000/svg">
<path fill-rule="evenodd" clip-rule="evenodd" d="M7.93376 12.0428C8.0902 12.2704 8.03255 12.5817 7.805 12.7381L3.5 15.6978V27.3043C3.5 27.9647 4.03531 28.5 4.69565 28.5H27.3043C27.9647 28.5 28.5 27.9647 28.5 27.3043V15.6978L24.195 12.7381C23.9674 12.5817 23.9098 12.2704 24.0662 12.0428C24.2227 11.8153 24.534 11.7576 24.7615 11.9141L29.2832 15.0228C29.4189 15.116 29.5 15.2701 29.5 15.4348V27.3043C29.5 28.517 28.517 29.5 27.3043 29.5H4.69565C3.48303 29.5 2.5 28.517 2.5 27.3043V15.4348C2.5 15.2701 2.58106 15.116 2.71674 15.0228L7.23847 11.9141C7.46602 11.7576 7.77731 11.8153 7.93376 12.0428Z" fill="#222222"/>
<path fill-rule="evenodd" clip-rule="evenodd" d="M11.7311 20.6965C11.8198 20.6256 11.9299 20.5869 12.0435 20.5869H19.9565C20.0701 20.5869 20.1802 20.6256 20.2689 20.6965L25.921 25.2182C26.1367 25.3907 26.1716 25.7054 25.9991 25.921C25.8266 26.1367 25.512 26.1716 25.2963 25.9991L19.7811 21.5869H12.2189L6.70366 25.9991C6.48803 26.1716 6.17339 26.1367 6.00088 25.921C5.82838 25.7054 5.86334 25.3907 6.07897 25.2182L11.7311 20.6965Z" fill="#222222"/>
<path fill-rule="evenodd" clip-rule="evenodd" d="M29.416 15.1574C29.5692 15.3872 29.5071 15.6976 29.2773 15.8508L22.4947 20.3725C22.265 20.5257 21.9545 20.4636 21.8013 20.2339C21.6482 20.0041 21.7103 19.6937 21.94 19.5405L28.7226 15.0188C28.9524 14.8656 29.2628 14.9277 29.416 15.1574Z" fill="#222222"/>
<path fill-rule="evenodd" clip-rule="evenodd" d="M2.58398 15.1574C2.73716 14.9277 3.04759 14.8656 3.27736 15.0188L10.06 19.5405C10.2897 19.6937 10.3518 20.0041 10.1986 20.2339C10.0455 20.4636 9.73502 20.5257 9.50526 20.3725L2.72266 15.8508C2.49289 15.6976 2.43081 15.3872 2.58398 15.1574Z" fill="#222222"/>
<path fill-rule="evenodd" clip-rule="evenodd" d="M7.02174 4.13043C7.02174 3.22997 7.75171 2.5 8.65218 2.5H23.3478C24.2483 2.5 24.9783 3.22997 24.9783 4.13043V18.4496C24.9783 18.7258 24.7544 18.9496 24.4783 18.9496C24.2021 18.9496 23.9783 18.7258 23.9783 18.4496V4.13043C23.9783 3.78225 23.696 3.5 23.3478 3.5H8.65218C8.304 3.5 8.02174 3.78225 8.02174 4.13043V18.4496C8.02174 18.7258 7.79789 18.9496 7.52174 18.9496C7.2456 18.9496 7.02174 18.7258 7.02174 18.4496V4.13043Z" fill="#222222"/>
<path fill-rule="evenodd" clip-rule="evenodd" d="M11.5 9.21053C11.5 7.7618 12.5734 6.5 14 6.5C14.767 6.5 15.3925 7.00796 15.7737 7.40273C15.856 7.48806 15.9317 7.57306 16 7.65426C16.0683 7.57306 16.144 7.48806 16.2263 7.40273C16.6075 7.00796 17.233 6.5 18 6.5C19.4266 6.5 20.5 7.7618 20.5 9.21053C20.5 9.85345 20.2931 10.4498 19.9413 10.9193C19.9162 10.9663 19.8836 11.0096 19.8439 11.0472L19.8189 11.0709C19.7088 11.1973 19.5872 11.3128 19.4555 11.4152L16.3439 14.363C16.151 14.5457 15.849 14.5457 15.6561 14.363L12.5445 11.4152C12.4128 11.3128 12.2912 11.1973 12.1811 11.0709L12.1561 11.0472C12.1164 11.0096 12.0838 10.9663 12.0587 10.9193C11.7069 10.4498 11.5 9.85345 11.5 9.21053ZM12.9095 10.3847C12.9145 10.3901 12.9193 10.3956 12.9241 10.4012C12.9995 10.4898 13.0827 10.5684 13.1718 10.636C13.1864 10.6471 13.2003 10.6589 13.2135 10.6714L16 13.3112L18.7865 10.6714C18.7997 10.6589 18.8136 10.6471 18.8282 10.636C18.9173 10.5684 19.0005 10.4897 19.0759 10.4012C19.0807 10.3956 19.0855 10.3901 19.0905 10.3847C19.0949 10.3788 19.0994 10.373 19.104 10.3673C19.347 10.0662 19.5 9.66192 19.5 9.21053C19.5 8.21757 18.7825 7.5 18 7.5C17.6632 7.5 17.2887 7.74204 16.9458 8.09727C16.7858 8.26298 16.6545 8.43071 16.563 8.5578C16.5176 8.62091 16.4828 8.67286 16.4599 8.70805C16.4485 8.72561 16.4401 8.73891 16.4349 8.74723L16.4296 8.75587C16.4295 8.75594 16.4296 8.7558 16.4296 8.75587C16.4296 8.75576 16.4292 8.75644 16 8.5C15.5708 8.75644 15.5708 8.75655 15.5709 8.75665L15.5651 8.74723C15.5599 8.73891 15.5515 8.72561 15.5401 8.70805C15.5172 8.67286 15.4824 8.62091 15.437 8.5578C15.3455 8.43071 15.2142 8.26298 15.0542 8.09727C14.7113 7.74204 14.3368 7.5 14 7.5C13.2175 7.5 12.5 8.21757 12.5 9.21053C12.5 9.66192 12.653 10.0662 12.896 10.3673C12.9006 10.373 12.9051 10.3788 12.9095 10.3847ZM16 8.5L15.5709 8.75665C15.5708 8.75655 15.571 8.75676 15.5709 8.75665C15.6612 8.90729 15.8243 9 16 9C16.1759 9 16.3393 8.9068 16.4296 8.75587" fill="black"/>
</svg>
