<svg width="32" height="32" viewBox="0 0 32 32" fill="none" xmlns="http://www.w3.org/2000/svg">
<path fill-rule="evenodd" clip-rule="evenodd" d="M16 1.80697C14.3773 1.1699 13.0851 1.15182 11.9685 1.44363C11.0189 1.69181 10.2105 2.16583 9.4946 2.58564C9.36127 2.66382 9.23115 2.74013 9.10391 2.81274C8.26822 3.2897 7.52897 3.6304 6.64612 3.59439C5.76366 3.55839 4.64437 3.13946 3.08831 1.86974L3.08629 1.86809L3.08629 1.8681C2.74815 1.59511 2.28257 1.5426 1.89215 1.73332C1.49967 1.92385 1.25381 2.32504 1.26187 2.76103C1.28712 4.52208 1.52611 7.72033 2.79522 10.4958C3.43253 11.8896 4.33901 13.1977 5.62846 14.1578C6.92359 15.1223 8.57725 15.7146 10.6664 15.715C12.4803 15.7313 14.2791 15.3848 15.9572 14.6958L15.966 14.6921L15.966 14.692C15.9877 14.6826 16.0123 14.6826 16.034 14.692L16.0428 14.6958L16.0429 14.6958C17.7209 15.3848 19.5197 15.7313 21.3336 15.715C23.4228 15.7146 25.0764 15.1223 26.3716 14.1578C27.661 13.1977 28.5675 11.8896 29.2048 10.4958C30.4738 7.72068 30.7129 4.5229 30.7382 2.76171C30.7478 2.32603 30.5036 1.92396 30.1118 1.7319C29.7192 1.53945 29.2505 1.59329 28.9117 1.86974M1.26187 2.76103C1.26188 2.76139 1.26188 2.76174 1.26189 2.7621L1.7618 2.75238L1.26185 2.75951C1.26186 2.76002 1.26186 2.76053 1.26187 2.76103ZM16 1.80697C17.6227 1.1699 18.9149 1.15182 20.0315 1.44363C20.9812 1.69181 21.7895 2.16583 22.5054 2.58564C22.6388 2.66382 22.7689 2.74013 22.8961 2.81274C23.7318 3.2897 24.4711 3.6304 25.3539 3.59439C26.2364 3.55839 27.3556 3.13947 28.9117 1.86979M25.3947 4.59355C26.5782 4.54528 27.9008 3.98534 29.5439 2.64454L29.544 2.64449C29.58 2.61508 29.6299 2.60935 29.6717 2.62982C29.7134 2.65029 29.7396 2.69331 29.7385 2.74014L29.7383 2.74523L29.7384 2.74523C29.7138 4.46232 29.4777 7.49436 28.2954 10.08C27.7068 11.3672 26.8932 12.5226 25.7743 13.3558C24.6617 14.1843 23.2196 14.715 21.3313 14.715H21.3267V14.7151C19.6467 14.7304 17.9807 14.4098 16.4264 13.7722C16.154 13.6559 15.846 13.6559 15.5736 13.7722C14.0193 14.4099 12.3533 14.7304 10.6733 14.7151L10.6688 14.715C8.78043 14.715 7.33838 14.1843 6.22571 13.3558C5.10686 12.5226 4.29324 11.3672 3.70466 10.08C2.52237 7.49437 2.28626 4.46232 2.26175 2.74524L2.2617 2.74266C2.26079 2.69597 2.28713 2.65313 2.32896 2.63288L2.33098 2.63189C2.37233 2.61164 2.42162 2.61706 2.45757 2.64574C4.10007 3.98568 5.42217 4.54529 6.60536 4.59355C7.7885 4.64181 8.73941 4.17218 9.59959 3.68125C9.745 3.59826 9.88739 3.51507 10.0281 3.43285C10.7443 3.01439 11.417 2.62135 12.2214 2.41113C13.15 2.16844 14.2762 2.17063 15.8079 2.80792C15.9309 2.85907 16.0691 2.85907 16.1921 2.80792C17.7238 2.17063 18.85 2.16844 19.7787 2.41113C20.583 2.62135 21.2557 3.01439 21.9719 3.43285C22.1126 3.51507 22.255 3.59826 22.4004 3.68125C23.2606 4.17218 24.2115 4.64181 25.3947 4.59355Z" fill="#222222"/>
<path fill-rule="evenodd" clip-rule="evenodd" d="M1.7619 2.24866C1.48576 2.24866 1.2619 2.47251 1.2619 2.74866V30.2381C1.2619 30.5142 1.48576 30.7381 1.7619 30.7381C2.03804 30.7381 2.2619 30.5142 2.2619 30.2381V2.74866C2.2619 2.47251 2.03804 2.24866 1.7619 2.24866Z" fill="#222222"/>
<path fill-rule="evenodd" clip-rule="evenodd" d="M7.6777 6.82748C8.32028 6.56967 9.19227 6.47868 10.1339 6.64687L10.134 6.64688C11.0758 6.815 11.8624 7.20326 12.3761 7.66871C12.8958 8.13969 13.0821 8.63053 13.0093 9.03824C12.9365 9.44631 12.5921 9.84271 11.9424 10.1042C11.3003 10.3626 10.4288 10.4535 9.48681 10.2821C8.54311 10.1103 7.75633 9.72169 7.24301 9.25699C6.72386 8.78702 6.53825 8.2981 6.61101 7.89041C6.6837 7.48306 7.02761 7.0883 7.6777 6.82748ZM7.30534 5.89939C6.47034 6.2344 5.78167 6.84558 5.62656 7.71472C5.47151 8.5835 5.90494 9.39458 6.57189 9.99834C7.24467 10.6074 8.21103 11.0663 9.30771 11.2659C10.4061 11.4659 11.4728 11.3711 12.3158 11.0318C13.1513 10.6956 13.8388 10.0823 13.9938 9.21393C14.1488 8.34517 13.7148 7.53229 13.0475 6.92768C12.3742 6.31754 11.407 5.85833 10.3097 5.66245M7.30534 5.89939C8.14784 5.56137 9.21345 5.46664 10.3097 5.66244L7.30534 5.89939Z" fill="#222222"/>
<path fill-rule="evenodd" clip-rule="evenodd" d="M24.3475 6.82748C23.705 6.56967 22.833 6.47868 21.8913 6.64687L21.8913 6.64688C20.9494 6.815 20.1628 7.20326 19.6492 7.66871C19.1294 8.13969 18.9432 8.63053 19.0159 9.03824C19.0887 9.44631 19.4332 9.84271 20.0828 10.1042C20.7249 10.3626 21.5965 10.4535 22.5384 10.2821C23.4821 10.1103 24.2689 9.72169 24.7822 9.25699C25.3014 8.78702 25.487 8.2981 25.4142 7.89041C25.3415 7.48306 24.9976 7.0883 24.3475 6.82748ZM24.7199 5.89939C25.5549 6.2344 26.2436 6.84558 26.3987 7.71472C26.5537 8.5835 26.1203 9.39458 25.4533 9.99834C24.7806 10.6074 23.8142 11.0663 22.7175 11.2659C21.6191 11.4659 20.5524 11.3711 19.7094 11.0318C18.874 10.6956 18.1865 10.0823 18.0315 9.21393C17.8764 8.34517 18.3105 7.53229 18.9777 6.92768C19.651 6.31754 20.6182 5.85833 21.7155 5.66245M24.7199 5.89939C23.8774 5.56137 22.8118 5.46664 21.7155 5.66244Z" fill="#222222"/>
</svg>
