<svg width="32" height="32" viewBox="0 0 32 32" fill="none" xmlns="http://www.w3.org/2000/svg">
<path fill-rule="evenodd" clip-rule="evenodd" d="M6.26601 3.35713C3.71496 3.35713 1.64286 5.43443 1.64286 7.99999C1.64286 10.5655 3.71496 12.6428 6.26601 12.6428C8.81707 12.6428 10.8892 10.5655 10.8892 7.99999C10.8892 5.43443 8.81707 3.35713 6.26601 3.35713ZM0.64286 7.99999C0.64286 4.88577 3.15906 2.35713 6.26601 2.35713C9.37297 2.35713 11.8892 4.88577 11.8892 7.99999C11.8892 11.1142 9.37297 13.6428 6.26601 13.6428C3.15906 13.6428 0.64286 11.1142 0.64286 7.99999ZM17.537 7.47142C16.1171 7.47142 14.9631 8.62712 14.9631 10.0571C14.9631 11.4871 16.1171 12.6428 17.537 12.6428C18.9568 12.6428 20.1108 11.4871 20.1108 10.0571C20.1108 8.62712 18.9568 7.47142 17.537 7.47142ZM13.9631 10.0571C13.9631 8.07846 15.5612 6.47142 17.537 6.47142C19.5127 6.47142 21.1108 8.07846 21.1108 10.0571C21.1108 12.0358 19.5127 13.6428 17.537 13.6428C15.5612 13.6428 13.9631 12.0358 13.9631 10.0571ZM3.19212 15.7C2.90653 15.7 2.66749 15.9372 2.66749 16.2286V27.5428C2.66749 27.8342 2.90653 28.0714 3.19212 28.0714H21.6355C21.9211 28.0714 22.1601 27.8342 22.1601 27.5428V23.8567C22.1599 23.849 22.1599 23.8413 22.1601 23.8335V20.3374C22.1599 20.3296 22.1599 20.3219 22.1601 20.3141V16.2286C22.1601 15.9372 21.9211 15.7 21.6355 15.7H3.19212ZM23.1601 19.5746V16.2286C23.1601 15.3885 22.477 14.7 21.6355 14.7H3.19212C2.35063 14.7 1.66749 15.3885 1.66749 16.2286V27.5428C1.66749 28.3829 2.35063 29.0714 3.19212 29.0714H21.6355C22.477 29.0714 23.1601 28.3829 23.1601 27.5428V24.5965L29.7185 27.3399L29.7187 27.34C30.0942 27.4968 30.5144 27.5004 30.8568 27.2716C31.1991 27.043 31.3571 26.6535 31.3571 26.246V17.928C31.3571 17.5205 31.1991 17.131 30.8572 16.9022C30.5149 16.673 30.0946 16.676 29.7187 16.833L29.7186 16.8331L23.1601 19.5746ZM23.1601 20.6585V23.5125L30.1042 26.4172C30.2471 26.477 30.3001 26.4409 30.3013 26.4401L30.3014 26.4401C30.3021 26.4396 30.3571 26.4042 30.3571 26.246V17.928C30.3571 17.7705 30.3026 17.7342 30.3009 17.7331L30.3009 17.7331L30.3009 17.7331C30.2995 17.7321 30.2467 17.6962 30.1042 17.7557L23.1601 20.6585ZM5.81058 19.3143C5.81058 19.0381 6.03444 18.8143 6.31058 18.8143H19.2302C19.5063 18.8143 19.7302 19.0381 19.7302 19.3143C19.7302 19.5904 19.5063 19.8143 19.2302 19.8143H6.31058C6.03444 19.8143 5.81058 19.5904 5.81058 19.3143Z" fill="#222222"/>
</svg>
