<svg width="32" height="32" viewBox="0 0 32 32" fill="none" xmlns="http://www.w3.org/2000/svg">
<path fill-rule="evenodd" clip-rule="evenodd" d="M15.6784 5.64287C13.5076 5.64287 11.8049 7.33953 11.8049 9.48945C11.8049 9.76559 11.581 9.98945 11.3049 9.98945C11.0287 9.98945 10.8049 9.76559 10.8049 9.48945C10.8049 6.78142 12.9612 4.64287 15.6784 4.64287C18.3957 4.64287 20.5519 6.78142 20.5519 9.48945C20.5519 12.0291 18.6555 14.0679 16.1784 14.3116V17.032C16.1784 17.2187 16.0744 17.3899 15.9087 17.4758L1.66404 24.8675C1.80854 25.8584 2.67438 26.6314 3.71552 26.6314H28.2845C29.3235 26.6314 30.1879 25.8616 30.3351 24.8735L16.7422 18.119C16.495 17.9961 16.3941 17.696 16.517 17.4487C16.6399 17.2014 16.94 17.1006 17.1872 17.2235L31.0796 24.1269C31.2496 24.2113 31.3571 24.3848 31.3571 24.5746C31.3571 26.2599 29.9727 27.6314 28.2845 27.6314H3.71552C2.02733 27.6314 0.642853 26.2599 0.642853 24.5746C0.642853 24.3879 0.746854 24.2168 0.912559 24.1308L15.1784 16.7282V13.836C15.1784 13.5599 15.4023 13.336 15.6784 13.336C17.8492 13.336 19.5519 11.6394 19.5519 9.48945C19.5519 7.33953 17.8492 5.64287 15.6784 5.64287Z" fill="#222222"/>
</svg>
