<svg width="32" height="32" viewBox="0 0 32 32" fill="none" xmlns="http://www.w3.org/2000/svg">
<path fill-rule="evenodd" clip-rule="evenodd" d="M16.0217 2.69836C16.7158 2.04278 17.7349 1.79862 18.547 1.91462C19.6806 2.07657 20.5858 3.17272 20.5858 4.39055C20.5858 5.15609 20.2752 5.77492 19.8203 6.22982L19.8139 6.23625L16.3471 9.57904C16.1535 9.76581 15.8467 9.76581 15.653 9.57904L12.1798 6.22988C11.4542 5.50424 11.0973 4.41143 11.591 3.42409C12.0512 2.50357 12.833 2.05628 13.8246 1.91462C14.6558 1.79588 15.4744 2.12547 16.0217 2.69836ZM18.4056 2.90457C17.6897 2.80231 16.8039 3.12504 16.4342 3.77195C16.3427 3.93205 16.1705 4.02881 15.9862 4.02369C15.8019 4.01857 15.6353 3.91242 15.5529 3.74749C15.2726 3.18689 14.6085 2.81279 13.966 2.90457C13.2243 3.01054 12.768 3.3061 12.4854 3.8713C12.2367 4.36868 12.374 5.00771 12.8839 5.51966L16.0001 8.52453L19.1162 5.51972C19.4024 5.23218 19.5858 4.86147 19.5858 4.39055C19.5858 3.62743 19.0052 2.99024 18.4056 2.90457ZM10.4286 11.4525C5.71318 11.4525 1.89055 15.2751 1.89055 19.9905C1.89055 24.706 5.71318 28.5286 10.4286 28.5286C12.1914 28.5286 13.8294 27.9944 15.1896 27.0791C13.2517 25.3333 12.0334 22.8042 12.0334 19.9905C12.0334 17.1769 13.2517 14.6478 15.1896 12.902C13.8294 11.9867 12.1914 11.4525 10.4286 11.4525ZM16.0001 12.2479C14.4327 11.1181 12.5084 10.4525 10.4286 10.4525C5.1609 10.4525 0.890549 14.7228 0.890549 19.9905C0.890549 25.2583 5.1609 29.5286 10.4286 29.5286C12.5084 29.5286 14.4327 28.863 16.0001 27.7332C17.5675 28.863 19.4918 29.5286 21.5715 29.5286C26.8393 29.5286 31.1096 25.2583 31.1096 19.9905C31.1096 14.7228 26.8393 10.4525 21.5715 10.4525C19.4918 10.4525 17.5675 11.1181 16.0001 12.2479ZM16.0001 13.5206C14.1835 15.0863 13.0334 17.4041 13.0334 19.9905C13.0334 22.577 14.1835 24.8948 16.0001 26.4605C17.8167 24.8948 18.9667 22.577 18.9667 19.9905C18.9667 17.4041 17.8167 15.0863 16.0001 13.5206ZM16.8106 27.0791C18.7484 25.3333 19.9667 22.8042 19.9667 19.9905C19.9667 17.1769 18.7484 14.6478 16.8106 12.902C18.1708 11.9867 19.8087 11.4525 21.5715 11.4525C26.287 11.4525 30.1096 15.2751 30.1096 19.9905C30.1096 24.706 26.287 28.5286 21.5715 28.5286C19.8087 28.5286 18.1708 27.9944 16.8106 27.0791Z" fill="#222222"/>
</svg>
