<svg width="32" height="32" viewBox="0 0 32 32" fill="none" xmlns="http://www.w3.org/2000/svg">
<path fill-rule="evenodd" clip-rule="evenodd" d="M8.87703 5.15676C8.87703 2.92537 10.657 1.13809 12.8595 1.13809C13.9072 1.13809 14.8324 1.54836 15.5379 2.186C16.2366 1.5424 17.1896 1.13809 18.2284 1.13809C20.431 1.13809 22.2109 2.92537 22.2109 5.15676C22.2109 6.41409 21.6461 7.53013 20.759 8.26507H29.5393C29.8155 8.26507 30.0393 8.48892 30.0393 8.76507V15.5166C30.0393 15.7928 29.8155 16.0166 29.5393 16.0166L28.2511 16.0167V30.3621C28.2511 30.6382 28.0272 30.8621 27.7511 30.8621H19.2746C19.2395 30.8699 19.2031 30.874 19.1657 30.874C19.1283 30.874 19.0919 30.8699 19.0569 30.8621H3.42645C3.15031 30.8621 2.92645 30.6382 2.92645 30.3621V16.0166H1.63809C1.36195 16.0166 1.13809 15.7928 1.13809 15.5166V8.76507C1.13809 8.48892 1.36195 8.26507 1.63809 8.26507H10.3429C9.44735 7.52353 8.87703 6.39892 8.87703 5.15676ZM11.5118 9.26507H2.13809V15.0166H11.5118V9.26507ZM11.4669 16.0166H3.92645V29.8621H11.4669V16.0166ZM12.4669 29.8621H18.6657V16.0168H12.4669V29.8621ZM12.5118 15.0168V9.16018C12.6264 9.17027 12.7424 9.17543 12.8595 9.17543H18.2284C18.3762 9.17543 18.522 9.16739 18.6656 9.15171L18.6657 15.0168H12.5118ZM19.6657 16.0168V29.8621H27.2511V16.0167L19.9708 16.0168C19.9695 16.0168 19.9682 16.0168 19.9669 16.0168L19.6657 16.0168ZM19.6657 15.0168L29.0393 15.0167V9.26507H19.6656L19.6657 15.0168ZM12.8595 2.13809C11.2161 2.13809 9.87703 3.47081 9.87703 5.15676C9.87703 6.81036 11.2194 8.17543 12.8595 8.17543H18.2284C19.8719 8.17543 21.2109 6.84315 21.2109 5.15676C21.2109 3.47081 19.8719 2.13809 18.2284 2.13809C17.296 2.13809 16.4576 2.57384 15.933 3.22235C15.8396 3.33777 15.6998 3.40573 15.5513 3.40783C15.4029 3.40994 15.2612 3.34598 15.1646 3.23326C14.5944 2.56795 13.7842 2.13809 12.8595 2.13809Z" fill="#222222"/>
</svg>
