<svg width="32" height="32" viewBox="0 0 32 32" fill="none" xmlns="http://www.w3.org/2000/svg">
<path fill-rule="evenodd" clip-rule="evenodd" d="M16 1.64285C8.07043 1.64285 1.64286 8.07043 1.64286 16C1.64286 23.9296 8.07043 30.3571 16 30.3571C23.9296 30.3571 30.3571 23.9296 30.3571 16C30.3571 8.07043 23.9296 1.64285 16 1.64285ZM0.64286 16C0.64286 7.51814 7.51815 0.642853 16 0.642853C24.4819 0.642853 31.3571 7.51814 31.3571 16C31.3571 24.4819 24.4819 31.3571 16 31.3571C7.51815 31.3571 0.64286 24.4819 0.64286 16Z" fill="#222222"/>
<path fill-rule="evenodd" clip-rule="evenodd" d="M9.94423 15.1194C9.45755 15.1194 9.06252 15.5144 9.06252 16C9.06252 16.4856 9.45755 16.8806 9.94423 16.8806C10.4304 16.8806 10.8248 16.4861 10.8248 16C10.8248 15.5139 10.4304 15.1194 9.94423 15.1194ZM8.06252 16C8.06252 14.961 8.90634 14.1194 9.94423 14.1194C10.9827 14.1194 11.8248 14.9616 11.8248 16C11.8248 17.0384 10.9827 17.8806 9.94423 17.8806C8.90634 17.8806 8.06252 17.039 8.06252 16Z" fill="#222222"/>
<path fill-rule="evenodd" clip-rule="evenodd" d="M15.7226 15.1194C15.236 15.1194 14.8409 15.5144 14.8409 16C14.8409 16.4856 15.236 16.8806 15.7226 16.8806C16.2088 16.8806 16.6032 16.4861 16.6032 16C16.6032 15.5139 16.2088 15.1194 15.7226 15.1194ZM13.8409 16C13.8409 14.961 14.6847 14.1194 15.7226 14.1194C16.7611 14.1194 17.6032 14.9616 17.6032 16C17.6032 17.0384 16.7611 17.8806 15.7226 17.8806C14.6847 17.8806 13.8409 17.039 13.8409 16Z" fill="#222222"/>
<path fill-rule="evenodd" clip-rule="evenodd" d="M22.0564 15.1194C21.5697 15.1194 21.1746 15.5144 21.1746 16C21.1746 16.4856 21.5697 16.8806 22.0564 16.8806C22.5425 16.8806 22.9369 16.4861 22.9369 16C22.9369 15.5139 22.5425 15.1194 22.0564 15.1194ZM20.1746 16C20.1746 14.961 21.0185 14.1194 22.0564 14.1194C23.0948 14.1194 23.9369 14.9616 23.9369 16C23.9369 17.0384 23.0948 17.8806 22.0564 17.8806C21.0185 17.8806 20.1746 17.039 20.1746 16Z" fill="#222222"/>
</svg>
