<svg width="32" height="32" viewBox="0 0 32 32" fill="none" xmlns="http://www.w3.org/2000/svg">
<path fill-rule="evenodd" clip-rule="evenodd" d="M14.1918 6.56667C14.1918 5.54381 15.0496 4.69542 16.0722 4.69542C17.0947 4.69542 17.9526 5.54381 17.9526 6.56667C17.9526 6.74209 17.9251 6.91623 17.8747 7.0824C22.4405 7.6721 26.3134 10.4719 28.3671 14.3617C28.9254 14.2448 29.4984 14.2066 30.0716 14.2493C30.3179 14.2677 30.5139 14.4631 30.533 14.7093C30.6245 15.8908 30.3499 17.1085 29.7282 18.1855C29.8745 18.9759 29.9818 19.8142 29.9818 20.6585C29.9818 20.9347 29.7579 21.1585 29.4818 21.1585H25.1209C24.9697 21.1751 24.8181 21.1863 24.6665 21.1924C24.6422 21.1961 24.6175 21.1979 24.5923 21.1979H24.3945C24.3448 21.1979 24.2969 21.1907 24.2516 21.1772C24.0914 21.1791 23.9312 21.1727 23.7716 21.1582H2.70234C2.56926 21.1582 2.44168 21.1051 2.34784 21.0108C2.254 20.9164 2.20163 20.7886 2.20234 20.6555C2.23961 13.6688 7.47216 7.91788 14.267 7.07347C14.2183 6.91001 14.1918 6.73895 14.1918 6.56667ZM16.8322 6.98726C16.9068 6.86053 16.9526 6.71018 16.9526 6.56667C16.9526 6.10203 16.5484 5.69542 16.0722 5.69542C15.5959 5.69542 15.1918 6.10203 15.1918 6.56667C15.1918 6.70875 15.2366 6.85753 15.3099 6.98346C15.5629 6.97112 15.8178 6.96555 16.0743 6.96692C16.3286 6.96694 16.5812 6.97378 16.8322 6.98726ZM15.0312 8.00241C8.58481 8.48004 3.49947 13.6935 3.21472 20.1582H21.2589C21.1025 20.0363 20.9518 19.9038 20.8079 19.7607C19.7574 18.7168 19.2675 17.317 19.4007 15.9513C19.4239 15.713 19.6127 15.5247 19.851 15.502C21.2223 15.3717 22.6306 15.8545 23.6814 16.8974L23.6891 16.9051L23.689 16.9052C23.8768 17.0998 24.0464 17.3066 24.1974 17.5231C24.4767 16.9682 24.8492 16.4497 25.3043 15.998L25.3102 15.9921L25.3103 15.9922C25.9304 15.397 26.6366 14.949 27.3889 14.654C25.3581 10.9486 21.5325 8.34676 17.0747 8.00515C17.0692 8.00533 17.0638 8.00542 17.0583 8.00542H15.086C15.0676 8.00542 15.0493 8.00441 15.0312 8.00241ZM28.196 15.4344C27.4019 15.665 26.6513 16.0921 26.0058 16.7107C25.4411 17.2721 25.0315 17.9563 24.8055 18.6739C24.992 19.1562 25.0789 19.6517 25.0976 20.1546C26.1924 20.0181 27.2382 19.5574 28.0623 18.7408C29.0287 17.7486 29.5295 16.4772 29.5495 15.2328C29.12 15.2384 28.693 15.2982 28.2773 15.4115C28.2506 15.4216 28.2233 15.4292 28.196 15.4344ZM24.095 20.1584C24.0424 19.2366 23.6619 18.3193 22.9731 17.6034C22.2458 16.8834 21.3136 16.505 20.3804 16.4823C20.4038 17.4052 20.7857 18.3288 21.5128 19.0514C22.1653 19.6999 22.9839 20.0722 23.82 20.1582H24.0794C24.0846 20.1582 24.0898 20.1583 24.095 20.1584ZM27.9025 20.1585H28.9685C28.954 19.8783 28.928 19.5975 28.8933 19.3177C28.8546 19.3596 28.8152 19.401 28.7752 19.442L28.7696 19.4479L28.7695 19.4478C28.4982 19.7171 28.2077 19.9536 27.9025 20.1585ZM0.880074 23.1635C0.880074 22.8874 1.10393 22.6635 1.38007 22.6635H30.8616C31.1378 22.6635 31.3616 22.8874 31.3616 23.1635C31.3616 23.4396 31.1378 23.6635 30.8616 23.6635H1.38007C1.10393 23.6635 0.880074 23.4396 0.880074 23.1635Z" fill="#222222"/>
</svg>
