<svg width="32" height="32" viewBox="0 0 32 32" fill="none" xmlns="http://www.w3.org/2000/svg">
<path d="M28.0011 28.9434V22.6471C27.7267 23.2289 27.4533 23.8549 27.1974 24.5045C26.8204 25.4613 26.5126 26.3909 26.2984 27.261C26.1496 27.8656 26.0493 28.429 26.0019 28.9434H28.0011ZM29.0001 28.9484V30H3.0001V28.9434L3.00112 12.566H2.0001V10.4634C1.99995 10.456 1.99995 10.4486 2.0001 10.4413L2.0001 9.92453H2.44279C5.03207 9.28468 7.71162 8.00193 10.3731 6.26435C11.758 5.36014 13.0489 4.39075 14.2101 3.42168C14.6161 3.0829 14.9765 2.76863 15.2871 2.48705C15.4689 2.32225 15.5941 2.20475 15.6587 2.14233C15.7537 2.04824 15.876 2.00039 15.9987 2C16.1242 2.00039 16.2465 2.04825 16.3416 2.14234C16.4061 2.20477 16.5313 2.32226 16.7131 2.48707C17.0236 2.76864 17.3841 3.08291 17.79 3.42169C18.9511 4.39075 20.242 5.36014 21.6269 6.26436C24.2883 8.00193 26.9679 9.28468 29.5574 9.92453H30.0001V10.4413C30.0002 10.4486 30.0002 10.456 30.0001 10.4634V12.566H29.0011V28.9484H29.0001ZM4.00112 28.9434H6.19205C6.14107 28.4322 6.03351 27.8719 5.8741 27.2705C5.64385 26.4018 5.31285 25.4734 4.90733 24.5176C4.61908 23.8382 4.31019 23.1845 4.00112 22.5803V28.9434ZM7.1969 28.9434H24.9977C25.0464 28.3404 25.1598 27.689 25.3306 26.995C25.5577 26.0724 25.8805 25.0977 26.2742 24.0984C26.5559 23.3835 26.8574 22.6975 27.159 22.0641C27.2094 21.9583 27.2581 21.8575 27.3049 21.7621C25.2894 20.7847 23.7814 19.4104 22.724 17.7398C21.9631 16.5379 21.4779 15.2522 21.2134 13.9603C21.1183 13.4955 21.058 13.0578 21.0258 12.6566C21.0233 12.6257 21.021 12.5955 21.0189 12.566H11.4799C11.4776 12.5966 11.4751 12.6279 11.4723 12.66C11.4375 13.0628 11.3723 13.502 11.2695 13.9684C10.9841 15.2634 10.4607 16.5517 9.64078 17.7548C8.50355 19.4235 6.88377 20.7946 4.72045 21.7687C4.76742 21.8579 4.81619 21.9517 4.86651 22.0499C5.19148 22.6836 5.51632 23.37 5.81984 24.0854C6.2442 25.0856 6.59211 26.0615 6.83704 26.9855C7.02182 27.6826 7.14436 28.3372 7.1969 28.9434ZM28.0011 20.9328V12.566H22.0198C22.0456 12.8908 22.0987 13.2867 22.1908 13.7369C22.4301 14.9055 22.8688 16.0682 23.5552 17.1524C24.5583 18.7371 26.013 20.03 28.0011 20.9328ZM4.00112 20.939C6.16354 20.0322 7.74311 18.7312 8.82928 17.1374C9.56741 16.0543 10.0387 14.8942 10.2956 13.7287C10.3943 13.2811 10.4511 12.8875 10.4789 12.566H4.00112V20.939ZM26.2402 9.92453C24.5316 9.21549 22.811 8.27943 21.1013 7.16321C19.6815 6.23627 18.3598 5.24372 17.1702 4.25084C16.7533 3.90294 16.3824 3.57958 16.0619 3.28892C16.0408 3.2698 16.0202 3.25107 16.0001 3.23274C15.98 3.25107 15.9594 3.2698 15.9383 3.28893C15.6177 3.57959 15.2468 3.90295 14.8299 4.25085C13.6402 5.24373 12.3185 6.23628 10.8987 7.16321C9.18899 8.27943 7.46842 9.21549 5.75984 9.92453H26.2402ZM3.0001 11.5094H29.0001V10.9811H3.0001V11.5094Z" fill="#222222"/>
</svg>
