<svg width="32" height="32" viewBox="0 0 32 32" fill="none" xmlns="http://www.w3.org/2000/svg">
<path fill-rule="evenodd" clip-rule="evenodd" d="M5.25416 4.28932C4.52206 4.28932 3.92857 4.88281 3.92857 5.61491V26.3851C3.92857 26.7367 4.06823 27.0738 4.31683 27.3224C4.56543 27.571 4.9026 27.7107 5.25416 27.7107H23.6959C24.0475 27.7107 24.3846 27.571 24.6332 27.3224C24.8818 27.0738 25.0215 26.7367 25.0215 26.3851V5.61491C25.0215 5.26334 24.8818 4.92617 24.6332 4.67758C24.3846 4.42898 24.0475 4.28932 23.6959 4.28932H5.25416ZM5.25416 3.28932C3.96978 3.28932 2.92857 4.33052 2.92857 5.61491V26.3851C2.92857 27.0019 3.17359 27.5934 3.60972 28.0295C4.04586 28.4657 4.63738 28.7107 5.25416 28.7107H23.6959C24.3127 28.7107 24.9042 28.4657 25.3403 28.0295C25.7765 27.5934 26.0215 27.0019 26.0215 26.3851V5.61491C26.0215 4.99813 25.7765 4.4066 25.3403 3.97047C24.9042 3.53434 24.3127 3.28932 23.6959 3.28932H5.25416Z" fill="#222222"/>
<path fill-rule="evenodd" clip-rule="evenodd" d="M5.25416 4.28932C4.52206 4.28932 3.92857 4.88281 3.92857 5.61491V26.3851C3.92857 26.7367 4.06823 27.0738 4.31683 27.3224C4.56543 27.571 4.9026 27.7107 5.25416 27.7107H5.33354V4.28932H5.25416ZM2.92857 5.61491C2.92857 4.33052 3.96978 3.28932 5.25416 3.28932H5.83354C6.10968 3.28932 6.33354 3.51318 6.33354 3.78932V28.2107C6.33354 28.4868 6.10968 28.7107 5.83354 28.7107H5.25416C4.63738 28.7107 4.04586 28.4657 3.60972 28.0295C3.17359 27.5934 2.92857 27.0019 2.92857 26.3851V5.61491Z" fill="#222222"/>
<path fill-rule="evenodd" clip-rule="evenodd" d="M10.2364 9.5995C10.2364 9.32336 10.4603 9.0995 10.7364 9.0995H20.3563C20.6324 9.0995 20.8563 9.32336 20.8563 9.5995V14.2947C20.8563 14.5708 20.6324 14.7947 20.3563 14.7947H10.7364C10.4603 14.7947 10.2364 14.5708 10.2364 14.2947V9.5995ZM11.2364 10.0995V13.7947H19.8563V10.0995H11.2364Z" fill="#222222"/>
<path fill-rule="evenodd" clip-rule="evenodd" d="M25.0215 6.54956C25.0215 6.27342 25.2453 6.04956 25.5215 6.04956H28.5714C28.8476 6.04956 29.0714 6.27342 29.0714 6.54956V11.0643C29.0714 11.3405 28.8476 11.5643 28.5714 11.5643H25.5215C25.2453 11.5643 25.0215 11.3405 25.0215 11.0643V6.54956ZM26.0215 7.04956V10.5643H28.0714V7.04956H26.0215Z" fill="#222222"/>
<path fill-rule="evenodd" clip-rule="evenodd" d="M25.0215 13.3272C25.0215 13.0511 25.2453 12.8272 25.5215 12.8272H28.5714C28.8476 12.8272 29.0714 13.0511 29.0714 13.3272V17.842C29.0714 18.1181 28.8476 18.342 28.5714 18.342H25.5215C25.2453 18.342 25.0215 18.1181 25.0215 17.842V13.3272ZM26.0215 13.8272V17.342H28.0714V13.8272H26.0215Z" fill="#222222"/>
<path fill-rule="evenodd" clip-rule="evenodd" d="M25.0215 20.0994C25.0215 19.8232 25.2453 19.5994 25.5215 19.5994H28.5714C28.8476 19.5994 29.0714 19.8232 29.0714 20.0994V24.6142C29.0714 24.8903 28.8476 25.1142 28.5714 25.1142H25.5215C25.2453 25.1142 25.0215 24.8903 25.0215 24.6142V20.0994ZM26.0215 20.5994V24.1142H28.0714V20.5994H26.0215Z" fill="#222222"/>
</svg>
