<svg width="32" height="32" viewBox="0 0 32 32" fill="none" xmlns="http://www.w3.org/2000/svg">
<path fill-rule="evenodd" clip-rule="evenodd" d="M16.0767 0.775562C16.2682 0.59883 16.5634 0.59883 16.7549 0.775562C17.9614 1.88893 19.0029 3.20868 19.8065 4.66213C21.2349 3.68777 22.958 3.11914 24.8042 3.11914C25.0803 3.11914 25.3042 3.34299 25.3042 3.61914V10.0424C25.2522 14.7612 21.5329 18.6294 16.865 18.8641V25.6655C17.298 24.8945 17.8424 24.1753 18.4857 23.5319C20.5108 21.4553 23.227 20.4981 25.8858 20.6043C26.1463 20.6147 26.3551 20.8235 26.3655 21.0839C26.4719 23.7476 25.4604 26.4557 23.5499 28.4721C23.5453 28.4771 23.5405 28.4819 23.5356 28.4867C21.6231 30.3469 19.1766 31.3039 16.679 31.3572L16.6683 31.3575L16.1631 31.3574C13.6581 31.3574 11.207 30.3967 9.2927 28.4841C7.21543 26.459 6.25884 23.7422 6.36502 21.0839C6.37558 20.8197 6.59014 20.6093 6.85459 20.604C9.5057 20.5508 12.2182 21.5053 14.2425 23.5297C14.8981 24.1852 15.4366 24.917 15.865 25.6987V18.8584C11.2452 18.5735 7.57861 14.7271 7.52694 10.0424L7.52688 10.0369L7.52691 3.61914C7.52691 3.34299 7.75077 3.11914 8.02691 3.11914C9.88579 3.11914 11.6076 3.68365 13.0311 4.65134C13.8339 3.20215 14.8732 1.88617 16.0767 0.775562ZM12.7385 5.67014C12.7855 5.76009 12.8603 5.83662 12.958 5.88548C12.9919 5.90243 13.0268 5.91516 13.0621 5.92389C14.8077 7.3681 15.9156 9.55281 15.9156 12.0078C15.9156 12.2839 16.1394 12.5078 16.4156 12.5078C16.6917 12.5078 16.9156 12.2839 16.9156 12.0078C16.9156 9.54858 18.0437 7.35957 19.8007 5.91511C19.8254 5.90728 19.8498 5.89743 19.8737 5.88548C19.9613 5.84165 20.0305 5.77554 20.0777 5.69745C21.2735 4.79998 22.7295 4.23432 24.3042 4.13488V10.0341C24.2556 14.3079 20.8218 17.7894 16.5734 17.8738C16.51 17.8447 16.4394 17.8284 16.365 17.8284C16.2928 17.8284 16.2242 17.8438 16.1622 17.8713C11.9584 17.7371 8.57512 14.2758 8.52691 10.0341V4.13455C10.1031 4.23203 11.5505 4.78743 12.7385 5.67014ZM19.0039 5.27886C18.3183 4.00698 17.4371 2.83968 16.4158 1.83376C15.3977 2.83655 14.5188 3.99972 13.8341 5.267C14.9994 6.27076 15.8995 7.57298 16.4182 9.05748C16.9398 7.57863 17.842 6.2809 19.0039 5.27886ZM25.3721 21.5971C23.1328 21.6258 20.895 22.4925 19.1996 24.2322L19.195 24.2369C17.9969 25.4345 17.1872 26.9154 16.8541 28.4847C16.8056 28.713 16.6056 28.8774 16.3722 28.8808C16.1387 28.8841 15.9341 28.7255 15.8791 28.4986C15.4939 26.9098 14.7266 25.4279 13.5354 24.2368C11.8411 22.5425 9.60153 21.6758 7.35792 21.6064C7.38876 23.8425 8.25503 26.077 9.99285 27.7701L9.99746 27.7746C11.7223 29.499 13.919 30.3574 16.1631 30.3574H16.6629C18.9114 30.3081 21.1086 29.4487 22.831 27.777C24.4407 26.0742 25.3383 23.8303 25.3721 21.5971Z" fill="#222222"/>
</svg>
